HIERARCHY
ROOT Hips
{
  OFFSET 5.72205e-005 65.662 3.42586
  CHANNELS 6 Xposition Yposition Zposition Zrotation Xrotation Yrotation
  JOINT Chest
  {
    OFFSET 0 8.7983 -4.7612
    CHANNELS 3 Zrotation Xrotation Yrotation
    JOINT Chest2
    {
      OFFSET 0 8.0291 0.4195
      CHANNELS 3 Zrotation Xrotation Yrotation
      JOINT Chest3
      {
        OFFSET 0 9.9351 -2.2114
        CHANNELS 3 Zrotation Xrotation Yrotation
        JOINT Neck
        {
          OFFSET 0 22.3885 -0.4656
          CHANNELS 3 Zrotation Xrotation Yrotation
          JOINT Head
          {
            OFFSET -0.0001 12.643 3.4389
            CHANNELS 3 Zrotation Xrotation Yrotation
            End Site
            {
              OFFSET 0.0001 17.6655 0.5274
            }
          }
        }
        JOINT LeftCollar
        {
          OFFSET 2.2603 21.606 7.4023
          CHANNELS 3 Zrotation Xrotation Yrotation
          JOINT LeftShoulder
          {
            OFFSET 13.5163 -1.1332 -5.0146
            CHANNELS 3 Zrotation Xrotation Yrotation
            JOINT LeftElbow
            {
              OFFSET -0.0995 -28.05 -0.2431
              CHANNELS 3 Zrotation Xrotation Yrotation
              JOINT LeftWrist
              {
                OFFSET 0.0679 -23.3996 -0.1402
                CHANNELS 3 Zrotation Xrotation Yrotation
                JOINT LeftFinger1
                {
                  OFFSET 0.7932 -9.069 2.5189
                  CHANNELS 3 Zrotation Xrotation Yrotation
                  JOINT LeftFinger11
                  {
                    OFFSET -0.8272 -3.3923 0.5977
                    CHANNELS 3 Zrotation Xrotation Yrotation
                    JOINT LeftFinger12
                    {
                      OFFSET -0.5649 -2.3158 0.4082
                      CHANNELS 3 Zrotation Xrotation Yrotation
                      End Site
                      {
                        OFFSET -0.4919 -1.6479 0.2673
                      }
                    }
                  }
                }
                JOINT LeftFinger2
                {
                  OFFSET 0.9159 -9.2044 0.2193
                  CHANNELS 3 Zrotation Xrotation Yrotation
                  JOINT LeftFinger21
                  {
                    OFFSET 0.0117 -4.1944 -0.0248
                    CHANNELS 3 Zrotation Xrotation Yrotation
                    JOINT LeftFinger22
                    {
                      OFFSET 0.0071 -2.3249 -0.0142
                      CHANNELS 3 Zrotation Xrotation Yrotation
                      End Site
                      {
                        OFFSET -0.1475 -2.0882 0.0028
                      }
                    }
                  }
                }
                JOINT LeftFinger3
                {
                  OFFSET 0.6113 -8.7231 -2.0637
                  CHANNELS 3 Zrotation Xrotation Yrotation
                  JOINT LeftFinger31
                  {
                    OFFSET -0.1927 -3.8059 -0.2383
                    CHANNELS 3 Zrotation Xrotation Yrotation
                    JOINT LeftFinger32
                    {
                      OFFSET -0.1091 -2.1688 -0.1362
                      CHANNELS 3 Zrotation Xrotation Yrotation
                      End Site
                      {
                        OFFSET -0.2358 -1.9176 -0.0906
                      }
                    }
                  }
                }
                JOINT LeftFinger4
                {
                  OFFSET -0.6151 -8.0947 -3.5641
                  CHANNELS 3 Zrotation Xrotation Yrotation
                  JOINT LeftFinger41
                  {
                    OFFSET -0.4882 -2.341 -0.6462
                    CHANNELS 3 Zrotation Xrotation Yrotation
                    JOINT LeftFinger42
                    {
                      OFFSET -0.3575 -1.7167 -0.4742
                      CHANNELS 3 Zrotation Xrotation Yrotation
                      End Site
                      {
                        OFFSET -0.4187 -1.5237 -0.3496
                      }
                    }
                  }
                }
                JOINT LeftFinger0
                {
                  OFFSET -1.42 -1.8761 1.4223
                  CHANNELS 3 Zrotation Xrotation Yrotation
                  JOINT LeftFinger01
                  {
                    OFFSET -1.1471 -3.4929 2.6334
                    CHANNELS 3 Zrotation Xrotation Yrotation
                    JOINT LeftFinger02
                    {
                      OFFSET -0.823 -2.3 1.6571
                      CHANNELS 3 Zrotation Xrotation Yrotation
                      End Site
                      {
                        OFFSET -0.5822 -1.6914 1.1582
                      }
                    }
                  }
                }
              }
            }
          }
        }
        JOINT RightCollar
        {
          OFFSET -2.2603 21.606 7.4023
          CHANNELS 3 Zrotation Xrotation Yrotation
          JOINT RightShoulder
          {
            OFFSET -13.5187 -1.1334 -5.0155
            CHANNELS 3 Zrotation Xrotation Yrotation
            JOINT RightElbow
            {
              OFFSET 0.0994 -28.0499 -0.2431
              CHANNELS 3 Zrotation Xrotation Yrotation
              JOINT RightWrist
              {
                OFFSET -0.0679 -23.3996 -0.1402
                CHANNELS 3 Zrotation Xrotation Yrotation
                JOINT RightFinger1
                {
                  OFFSET -0.7932 -9.0691 2.5189
                  CHANNELS 3 Zrotation Xrotation Yrotation
                  JOINT RightFinger11
                  {
                    OFFSET 0.8272 -3.3923 0.5977
                    CHANNELS 3 Zrotation Xrotation Yrotation
                    JOINT RightFinger12
                    {
                      OFFSET 0.565 -2.3158 0.4082
                      CHANNELS 3 Zrotation Xrotation Yrotation
                      End Site
                      {
                        OFFSET 0.4919 -1.6479 0.2673
                      }
                    }
                  }
                }
                JOINT RightFinger2
                {
                  OFFSET -0.916 -9.2044 0.2193
                  CHANNELS 3 Zrotation Xrotation Yrotation
                  JOINT RightFinger21
                  {
                    OFFSET -0.0117 -4.1944 -0.0248
                    CHANNELS 3 Zrotation Xrotation Yrotation
                    JOINT RightFinger22
                    {
                      OFFSET -0.0071 -2.3249 -0.0142
                      CHANNELS 3 Zrotation Xrotation Yrotation
                      End Site
                      {
                        OFFSET 0.1475 -2.0882 0.0028
                      }
                    }
                  }
                }
                JOINT RightFinger3
                {
                  OFFSET -0.6113 -8.7231 -2.0637
                  CHANNELS 3 Zrotation Xrotation Yrotation
                  JOINT RightFinger31
                  {
                    OFFSET 0.1927 -3.8059 -0.2383
                    CHANNELS 3 Zrotation Xrotation Yrotation
                    JOINT RightFinger32
                    {
                      OFFSET 0.1091 -2.1688 -0.1362
                      CHANNELS 3 Zrotation Xrotation Yrotation
                      End Site
                      {
                        OFFSET 0.2358 -1.9176 -0.0906
                      }
                    }
                  }
                }
                JOINT RightFinger4
                {
                  OFFSET 0.6151 -8.0947 -3.564
                  CHANNELS 3 Zrotation Xrotation Yrotation
                  JOINT RightFinger41
                  {
                    OFFSET 0.4882 -2.341 -0.6462
                    CHANNELS 3 Zrotation Xrotation Yrotation
                    JOINT RightFinger42
                    {
                      OFFSET 0.3574 -1.7166 -0.4742
                      CHANNELS 3 Zrotation Xrotation Yrotation
                      End Site
                      {
                        OFFSET 0.4187 -1.5237 -0.3496
                      }
                    }
                  }
                }
                JOINT RightFinger0
                {
                  OFFSET 1.4199 -1.8761 1.4221
                  CHANNELS 3 Zrotation Xrotation Yrotation
                  JOINT RightFinger01
                  {
                    OFFSET 1.1472 -3.4929 2.6336
                    CHANNELS 3 Zrotation Xrotation Yrotation
                    JOINT RightFinger02
                    {
                      OFFSET 0.8229 -2.3 1.6571
                      CHANNELS 3 Zrotation Xrotation Yrotation
                      End Site
                      {
                        OFFSET 0.5822 -1.6914 1.1582
                      }
                    }
                  }
                }
              }
            }
          }
        }
      }
    }
  }
  JOINT RightHip
  {
    OFFSET -9.412 3.9771 -0.7758
    CHANNELS 3 Zrotation Xrotation Yrotation
    JOINT RightKnee
    {
      OFFSET -0.7531 -40.938 0
      CHANNELS 3 Zrotation Xrotation Yrotation
      JOINT RightAnkle
      {
        OFFSET 0 -40.1986 0
        CHANNELS 3 Zrotation Xrotation Yrotation
        JOINT RightToe
        {
          OFFSET 0 -4.4182 9.239
          CHANNELS 3 Zrotation Xrotation Yrotation
          End Site
          {
            OFFSET 0 0 6.1981
          }
        }
      }
    }
  }
  JOINT LeftHip
  {
    OFFSET 9.4119 3.9773 -0.7758
    CHANNELS 3 Zrotation Xrotation Yrotation
    JOINT LeftKnee
    {
      OFFSET 0.7532 -40.9383 0
      CHANNELS 3 Zrotation Xrotation Yrotation
      JOINT LeftAnkle
      {
        OFFSET 0 -40.1986 0
        CHANNELS 3 Zrotation Xrotation Yrotation
        JOINT LeftToe
        {
          OFFSET 0 -4.4182 9.239
          CHANNELS 3 Zrotation Xrotation Yrotation
          End Site
          {
            OFFSET 0 0 6.1981
          }
        }
      }
    }
  }
}
MOTION
Frames:	5
Frame Time:	0.0333333
5.72205e-005 65.662 3.42586 0 0 -0 0 0 -0 0 0 -0 0 0 -0 0 0 -0 0 0 -0 0 0 -12.5014 88.1196 14.2451 10.6914 -0.00160068 -0.00239207 0.000740045 -8.4365e-005 7.00714e-005 -9.52055e-007 9.93923e-017 -1.98785e-016 -1.59028e-015 9.93923e-017 -5.96354e-016 -1.59028e-015 -9.93923e-017 -5.96354e-016 -1.59028e-015 9.93923e-017 -1.98785e-016 -1.59028e-015 -0.0128176 0.00232552 8.52707e-005 9.93923e-017 5.96354e-016 -0 9.93923e-017 -1.98785e-016 -1.59028e-015 -0.0160551 0.00299681 0.000857156 -2.48481e-016 0 3.18055e-015 9.93923e-017 -1.98785e-016 -1.59028e-015 -0.0125865 0.0031206 0.00282719 0 1.98785e-016 -0 9.93923e-017 -1.98785e-016 -1.59028e-015 9.93923e-017 -5.96354e-016 -1.59028e-015 -9.93923e-017 -5.96354e-016 -1.59028e-015 -0.865644 0.16582 7.03859 -88.0329 10.2057 -10.5567 0.0015593 -0.00248883 -0.000788628 7.87605e-005 4.10553e-005 1.24965e-005 -3.97569e-016 -7.95139e-016 3.18055e-015 -1.98785e-016 -3.97569e-016 3.18055e-015 -1.98785e-016 0 3.18055e-015 -3.97569e-016 -7.95139e-016 3.18055e-015 0.0129473 0.00231697 -8.70038e-005 9.93923e-017 -7.95139e-016 1.59028e-015 -3.97569e-016 -7.95139e-016 3.18055e-015 0.0163314 0.00303369 -0.000872333 3.97569e-016 7.95139e-016 -3.18055e-015 -3.97569e-016 -7.95139e-016 3.18055e-015 0.0145763 0.00367772 -0.00326275 9.93923e-017 -3.97569e-016 -0 -3.97569e-016 -7.95139e-016 3.18055e-015 -1.98785e-016 -3.97569e-016 3.18055e-015 -1.98785e-016 0 3.18055e-015 3.42482 1.32465 -0.0626183 0.000117508 0.717283 0.000978199 -3.4257 -2.04197 -0.0604716 6.47761e-025 0 -0 -3.42483 1.34017 0.0627307 -0.000193936 0.682302 -0.0013703 3.42574 -2.02253 0.0595886 -8.45714e-024 0 -7.40531e-025 
0.123743 64.1122 -65.9743 2.1439e-008 39.9976 1.95921e-008 -0.71378 12.4238 -0.0243948 -1.47618 24.8469 0.118579 -1.47617 24.8469 0.118579 3.39833e-005 -40.0019 5.02283e-006 1.12314e-006 -1.15931 1.62093e-007 -46.0244 -5.43209 40.2156 59.1667 37.9941 -23.2954 2.23623 -3.78766 0.535394 -3.10166 13.8915 -0.0858887 -3.80641e-008 -1.49908e-009 -8.51029e-007 -9.93923e-017 0 1.59028e-015 -1.62566e-006 -1.79858e-006 5.28946e-007 -3.80641e-008 -1.49908e-009 -8.51029e-007 -0.0128307 0.00232715 8.83763e-005 -4.96962e-017 -4.99169e-010 -0 -3.80641e-008 -1.49908e-009 -8.51029e-007 -0.016041 0.00299578 0.000859305 -3.80037e-008 -1.49815e-006 -8.51032e-007 -3.80641e-008 -1.49908e-009 -8.51029e-007 -0.012709 0.00315331 0.00285618 1.90023e-008 -8.53432e-007 4.25517e-007 -3.80641e-008 -1.49908e-009 -8.51029e-007 -9.93923e-017 0 1.59028e-015 -1.62566e-006 -1.79858e-006 5.28946e-007 44.7484 -4.45667 -43.5783 -62.5997 33.248 27.404 2.49597 -11.3368 0.311165 9.5249 -11.6044 0.979355 -7.95139e-015 -3.18055e-015 -1.19271e-015 -5.27489e-006 1.57266e-006 5.91532e-006 2.06847e-006 1.6507e-006 -4.96512e-006 -7.95139e-015 -3.18055e-015 -1.19271e-015 0.0128816 0.00230872 -8.27796e-005 -6.55989e-015 -3.18055e-015 5.56597e-015 -7.95139e-015 -3.18055e-015 -1.19271e-015 0.0163129 0.00302857 -0.000866527 2.98177e-015 6.36111e-015 -3.18055e-015 -7.95139e-015 -3.18055e-015 -1.19271e-015 0.0146898 0.00370331 -0.00328591 4.77083e-015 0 -3.18055e-015 -7.95139e-015 -3.18055e-015 -1.19271e-015 -5.27489e-006 1.57266e-006 5.91532e-006 2.06847e-006 1.6507e-006 -4.96512e-006 -8.38774 -41.6322 -0.148778 -0.0556334 11.8906 0.21935 -3.82242 -7.56886 -4.2123 2.12451e-015 -3.97569e-016 -0 15.7462 -37.9178 -0.244903 -0.919739 11.8468 0.100547 6.94511 -5.36344 9.39713 -3.24711e-006 -8.59041e-007 2.96484e-008 
0.12187 64.1121 -65.9741 -2.29356e-009 39.9976 1.03299e-009 -0.7128 12.4903 -0.0267993 -1.47417 24.9801 0.114406 -1.47416 24.98 0.114404 3.5961e-005 -40.6123 5.75295e-006 5.83816e-007 -2.31181 1.75206e-007 -45.9423 -5.55323 39.903 58.9708 38.0524 -23.1816 2.23619 -3.78762 0.535385 -3.10164 13.8915 -0.0858975 -3.81369e-008 -6.4367e-007 -8.5107e-007 3.8137e-008 -2.77585e-006 8.5107e-007 3.8137e-008 -1.91998e-006 8.5107e-007 -3.81369e-008 -6.4367e-007 -8.5107e-007 -0.0128389 0.00232699 8.66841e-005 3.80898e-008 -1.92049e-006 8.51071e-007 -3.81369e-008 -6.4367e-007 -8.5107e-007 -0.0160273 0.0029889 0.000855787 5.71153e-008 -1.06415e-006 1.27661e-006 -3.81369e-008 -6.4367e-007 -8.5107e-007 -0.0126281 0.00312655 0.00283753 7.20594e-016 -1.70976e-006 7.95139e-016 -3.81369e-008 -6.4367e-007 -8.5107e-007 3.8137e-008 -2.77585e-006 8.5107e-007 3.8137e-008 -1.91998e-006 8.5107e-007 44.6627 -4.58883 -43.2942 -62.5997 33.248 27.404 2.49595 -11.3368 0.311178 9.52488 -11.6044 0.979336 -1.78906e-015 -3.18055e-015 -4.77083e-015 5.95877e-031 9.54166e-015 -3.57812e-015 2.5842e-015 3.18055e-015 7.95139e-016 -1.78906e-015 -3.18055e-015 -4.77083e-015 0.0129044 0.00231265 -8.908e-005 2.5842e-015 -4.77083e-014 7.55382e-015 -1.78906e-015 -3.18055e-015 -4.77083e-015 0.0164145 0.00304971 -0.00087311 9.93923e-016 3.18055e-015 1.19271e-015 -1.78906e-015 -3.18055e-015 -4.77083e-015 0.0144941 0.00366304 -0.00324212 3.77691e-015 9.54166e-015 -3.18055e-015 -1.78906e-015 -3.18055e-015 -4.77083e-015 5.95877e-031 9.54166e-015 -3.57812e-015 2.5842e-015 3.18055e-015 7.95139e-016 -8.58035 -41.6385 -0.856772 -0.055187 11.8893 0.219635 -3.87276 -7.61502 -3.60829 8.38703e-007 -2.36119e-007 3.39517e-008 15.9341 -37.7877 0.0055831 -1.21907 11.5814 0.171194 7.09938 -5.2418 9.20544 -4.17448e-015 0 -3.97569e-016 
0.119996 64.112 -65.974 2.57824e-007 39.9976 -1.80524e-007 -0.711786 12.5569 -0.0292036 -1.47208 25.1133 0.110221 -1.47207 25.1133 0.11022 3.71773e-005 -41.223 6.30562e-006 8.93507e-007 -3.46617 -1.10242e-007 -45.8607 -5.67484 39.5905 58.7746 38.1106 -23.0675 2.23622 -3.78767 0.535389 -3.10164 13.8915 -0.0858733 1.963e-015 1.19271e-015 7.95139e-016 1.93815e-015 3.97569e-016 7.95139e-016 5.11871e-015 -3.97569e-016 -0 1.963e-015 1.19271e-015 7.95139e-016 -0.0128291 0.00232731 8.67189e-005 1.14301e-015 -7.95139e-016 1.59028e-015 1.963e-015 1.19271e-015 7.95139e-016 -0.016097 0.00300571 0.00086052 2.85753e-015 7.95139e-016 -0 1.963e-015 1.19271e-015 7.95139e-016 -0.0126901 0.00314905 0.00285311 8.87812e-006 -7.29653e-007 8.61117e-007 1.963e-015 1.19271e-015 7.95139e-016 1.93815e-015 3.97569e-016 7.95139e-016 5.11871e-015 -3.97569e-016 -0 44.5775 -4.72141 -43.0103 -62.5997 33.248 27.4039 2.49594 -11.3368 0.311169 9.5249 -11.6044 0.979346 -7.35503e-015 6.36111e-015 -3.18055e-015 -4.77083e-015 3.18055e-015 -1.19271e-015 -3.18055e-015 -3.18055e-015 1.19271e-015 -7.35503e-015 6.36111e-015 -3.18055e-015 0.0130351 0.00231805 -8.6827e-005 1.98785e-015 6.36111e-015 1.98785e-015 -7.35503e-015 6.36111e-015 -3.18055e-015 0.0163683 0.00303977 -0.000872409 8.71519e-007 7.11608e-007 3.67853e-006 -7.35503e-015 6.36111e-015 -3.18055e-015 0.0146377 0.00368732 -0.00327572 -2.18663e-015 -6.36111e-015 7.95139e-016 -7.35503e-015 6.36111e-015 -3.18055e-015 -4.77083e-015 3.18055e-015 -1.19271e-015 -3.18055e-015 -3.18055e-015 1.19271e-015 -8.77224 -41.6453 -1.5645 -0.0554511 11.89 0.219895 -3.92264 -7.66152 -3.00398 8.3831e-007 -2.36426e-007 3.36779e-008 16.1206 -37.6564 0.254748 -1.51784 11.3144 0.240186 7.2539 -5.11999 9.0137 4.47266e-016 -2.38542e-015 -7.95139e-016 
0.11812 64.1119 -65.9738 0 39.9976 -0 -0.710737 12.6236 -0.0316065 -1.46991 25.2467 0.106025 -1.46991 25.2467 0.106026 3.97139e-005 -41.834 8.00856e-006 5.47648e-007 -4.62219 6.43085e-007 -45.7798 -5.79688 39.278 58.578 38.1684 -22.953 2.23622 -3.78759 0.53541 -3.10167 13.8915 -0.0858971 1.16786e-015 -3.97569e-016 -0 1.91345e-008 1.71054e-006 4.25574e-007 4.62174e-015 -1.59028e-015 -7.95139e-016 1.16786e-015 -3.97569e-016 -0 -0.0128136 0.00232596 8.52577e-005 -4.93342e-006 -4.42075e-008 3.08229e-007 1.16786e-015 -3.97569e-016 -0 -0.0161385 0.00301415 0.000863042 6.70898e-016 7.95139e-016 -1.59028e-015 1.16786e-015 -3.97569e-016 -0 -0.0126788 0.00314427 0.00284743 1.88845e-015 7.95139e-016 7.95139e-016 1.16786e-015 -3.97569e-016 -0 1.91345e-008 1.71054e-006 4.25574e-007 4.62174e-015 -1.59028e-015 -7.95139e-016 44.493 -4.85444 -42.7265 -62.5997 33.248 27.4039 2.49596 -11.3368 0.311177 9.52486 -11.6044 0.979347 -5.56597e-015 -2.22639e-014 -1.59028e-015 -2.78299e-015 -2.54444e-014 -3.97569e-016 -3.77691e-015 -1.59028e-014 -3.97569e-016 -5.56597e-015 -2.22639e-014 -1.59028e-015 0.012971 0.00232306 -8.79891e-005 -3.97569e-015 -9.54166e-015 -2.38542e-015 -5.56597e-015 -2.22639e-014 -1.59028e-015 0.0162909 0.0030285 -0.000874128 -1.98785e-016 -3.18055e-015 3.57812e-015 -5.56597e-015 -2.22639e-014 -1.59028e-015 0.01449 0.00365221 -0.00325084 -4.16593e-006 3.29119e-007 3.60925e-006 -5.56597e-015 -2.22639e-014 -1.59028e-015 -2.78299e-015 -2.54444e-014 -3.97569e-016 -3.77691e-015 -1.59028e-014 -3.97569e-016 -8.96448 -41.6499 -2.2727 -0.0556045 11.8904 0.220179 -3.97202 -7.70871 -2.39942 -3.97569e-015 0 -3.97569e-016 16.3058 -37.5236 0.50255 -1.81598 11.0451 0.307449 7.40865 -4.99759 8.82189 -1.2424e-015 1.59028e-015 -3.97569e-016 
